<svg xmlns="http://www.w3.org/2000/svg" xmlns:xlink="http://www.w3.org/1999/xlink" version="1.1" x="0px" y="0px" viewBox="0 0 100 125" enable-background="new 0 0 100 100" xml:space="preserve"><g><path d="M75.162,100h8.52L68.541,77.539l-37.08,0.002L16.319,100h8.52l1.453-2.163h47.417L75.162,100z M31.168,90.583l3.95-5.902   h29.769l3.959,5.902H31.168z"/><path d="M79.629,11.975c0,0-0.674-9.669-24.273-10.945L44.65,1.044C21,2.452,19.992,13.12,19.992,13.12L16.55,36.441v15.627v13.199   v4.08c0,1.672,1.357,3.027,3.03,3.027h3.045h14.232h26.289h16.148h1.129c1.674,0,3.027-1.355,3.027-3.027v-1.409v-15.87V36.441   L79.629,11.975z M78.031,61.782c0,2.957-2.395,5.352-5.35,5.352c-2.957,0-5.354-2.395-5.354-5.352s2.396-5.352,5.354-5.352   C75.637,56.431,78.031,58.825,78.031,61.782z M35.639,6.048h28.728c1.637,0,2.961,1.326,2.961,2.963   c0,1.636-1.324,2.964-2.961,2.964H35.639c-1.636,0-2.964-1.328-2.964-2.964C32.675,7.375,34.003,6.048,35.639,6.048z    M23.027,38.096l2.167-20.705c0-1.198,0.972-2.169,2.167-2.169h45.279c1.199,0,2.17,0.971,2.17,2.169l2.168,20.705v7.572   c0,1.861-1.504,3.372-3.355,3.372H26.379c-1.849,0-3.352-1.511-3.352-3.372V38.096z M27.322,56.431   c2.956,0,5.353,2.395,5.353,5.352s-2.397,5.352-5.353,5.352c-2.954,0-5.352-2.395-5.352-5.352S24.368,56.431,27.322,56.431z"/></g><text x="0" y="115" fill="#000000" font-size="5px" font-weight="bold" font-family="'Helvetica Neue', Helvetica, Arial-Unicode, Arial, Sans-serif">Created by Georg Habermann</text><text x="0" y="120" fill="#000000" font-size="5px" font-weight="bold" font-family="'Helvetica Neue', Helvetica, Arial-Unicode, Arial, Sans-serif">from the Noun Project</text></svg>